inDegrees=yes
name=ik_S50_A13_T01
DataType=double
version=3
OpenSimVersion=4.3-2021-08-27-4bc7ad9
endheader
time	pelvis_tilt	pelvis_list	pelvis_rotation	pelvis_tx	pelvis_ty	pelvis_tz	hip_flexion_r	hip_adduction_r	hip_rotation_r	knee_angle_r	knee_angle_r_beta	ankle_angle_r	subtalar_angle_r	mtp_angle_r	hip_flexion_l	hip_adduction_l	hip_rotation_l	knee_angle_l	knee_angle_l_beta	ankle_angle_l	subtalar_angle_l	mtp_angle_l	lumbar_extension	lumbar_bending	lumbar_rotation	arm_flex_r	arm_add_r	arm_rot_r	elbow_flex_r	pro_sup_r	wrist_flex_r	wrist_dev_r	arm_flex_l	arm_add_l	arm_rot_l	elbow_flex_l	pro_sup_l	wrist_flex_l	wrist_dev_l
0	0	0	0	0	0.9399999999999999	0	0	0	0	0	0	0	0	0	0	0	0	0	0	0	0	0	0	0	0	0	0	0	0	89.99999999963507	0	0	0	0	0	0	89.99999999869995	0	0
0.02	-0.6460540685209958	-1.186165103489054	26.94462374535203	0	0.9399999999999999	0	2.660165450797048	-1.248911880430579	-0.8962923030853409	4.129450861362606	0.07207251383009336	0	0	0	2.660165450797048	-1.248911880430579	-0.8962923030853409	4.129450861362606	0.07207251383009336	0	0	0	0.3635529602638625	0.6431469614404235	10.24679383463327	15.50509655617176	0.1568351094100144	16.37699299756097	0.8069967090863402	147.8428082335299	0	0	15.68008433696948	-2.042844408509785	19.29663293141893	16.71176264250727	152.2426289405028	0	0
0.04	-0.6397335328015348	-1.186282716779668	26.97375479888345	0	0.9399999999999999	0	2.892897568721495	-1.351661609522576	-0.9804026590125869	4.329063035682704	0.07555640349904397	0	0	0	2.892897568721495	-1.351661609522576	-0.9804026590125869	4.329063035682704	0.07555640349904397	0	0	0	0.3637754296293805	0.6340071137977997	10.22454841748975	15.47966304495539	0.185647788248109	16.41091351594142	0.8636961990571501	147.8029770634998	0	0	15.65193300357767	-2.060687633999862	19.3486458955519	16.79431710607261	152.1650793879964	0	0
0.06	-0.646657461661833	-1.184612167855292	27.02033678486627	0	0.9399999999999999	0	3.199207364037392	-1.486228668143828	-1.089077885034687	4.607228005109149	0.08041129807924478	0	0	0	3.199207364037392	-1.486228668143828	-1.089077885034687	4.607228005109149	0.08041129807924478	0	0	0	0.3499924974746769	0.6309707975476997	10.17640351574146	15.5044546194826	0.178710870264977	16.40781554374409	0.881928743484173	147.8369547338634	0	0	15.66719350074849	-2.067118996749384	19.33961887139089	16.80417491141461	152.1939088986251	0	0
0.08	-0.642243624100359	-1.186701768645115	27.05120307198692	0	0.9399999999999999	0	3.487542518660932	-1.611530500964972	-1.191651328152066	4.859019339842463	0.08480588589833228	0	0	0	3.487542518660932	-1.611530500964972	-1.191651328152066	4.859019339842463	0.08480588589833228	0	0	0	0.3465118137732358	0.6194002292702766	10.15225362594303	15.5056933283818	0.172419470988001	16.41459202588045	0.8943306015967135	147.806050090203	0	0	15.66021330263086	-2.083826329723387	19.38531512033447	16.83554941614819	152.1596520955582	0	0
0.1	-0.6054925761109929	-1.188463663021056	27.29764322002779	0	0.9399999999999999	0	4.895622196141683	-2.251892187078537	-1.687517977755674	6.313421604787227	0.1101899940700813	0	0	0	4.895622196141683	-2.251892187078537	-1.687517977755674	6.313421604787227	0.1101899940700813	0	0	0	0.3204998719092536	0.6509630826632307	9.919323818337274	15.48551876325295	0.134621404319347	16.45666233408502	1.11162000254476	147.6127893553569	0	0	15.64420009930927	-2.102283055770643	19.42501404752329	16.96554323928285	152.0187973680236	0	0
0.12	-0.6030760139243297	-1.175293197308157	27.36834582414668	0	0.9399999999999999	0	5.293998833608699	-2.430867006416976	-1.824091047692538	6.748380014753781	0.117781450433237	0	0	0	5.293998833608699	-2.430867006416976	-1.824091047692538	6.748380014753781	0.117781450433237	0	0	0	0.3224543670478475	0.6439404228208043	9.848202551098378	15.52986023821773	0.1725919026180892	16.39891022412862	0.7817743935330957	147.8816596388891	0	0	15.63719591357185	-2.054520367837703	19.38527986462791	16.76176590772758	152.2181428357822	0	0
0.14	-0.5998255244803196	-1.17600061831045	27.41237268580571	0	0.9399999999999999	0	5.535382660261535	-2.536313882619813	-1.906725626749889	7.000410381525001	0.1221802101484037	0	0	0	5.535382660261535	-2.536313882619813	-1.906725626749889	7.000410381525001	0.1221802101484037	0	0	0	0.3164702450472863	0.6398022979307765	9.806661125134388	15.51089233104644	0.1639904516066272	16.40417122570919	0.8851957000743861	147.7999447175798	0	0	15.6459158922464	-2.088800848624604	19.37471731022428	16.83904689831657	152.1269234716555	0	0
